# Blender v2.92.0 OBJ File: 'cartoon_lowpoly_trees_blend.blend'
# www.blender.org
mtllib smalltree2.mtl
o Tree_1
v -12.654861 -0.307095 -0.256420
v -10.638842 -0.310583 -0.271274
v -10.924068 2.458300 -0.488289
v -12.372952 1.863153 -0.494422
v -10.623985 -0.378771 -2.576964
v -10.913046 2.415965 -2.199172
v -12.640005 -0.375284 -2.562109
v -12.361929 1.820817 -2.205306
v -11.737919 5.470272 -0.192367
v -13.095200 5.470270 -0.192367
v -11.737917 5.470270 -1.549647
v -13.095200 5.470269 -1.549648
v -12.748955 9.669170 -0.102952
v -13.708517 9.669172 -0.102952
v -12.748953 9.669172 -1.062517
v -13.708517 9.669170 -1.062517
v -13.280571 10.717005 -0.181090
v -12.477282 10.717005 -0.181089
v -9.568251 17.993740 -0.678376
v -10.094542 17.993740 -0.678376
v -12.477282 10.717005 -0.984378
v -9.568249 17.993742 -1.204669
v -13.280571 10.717005 -0.984378
v -10.094542 17.993740 -1.204669
v -17.582172 14.505503 -1.078175
v -17.582174 14.505503 -0.804879
v -18.068026 14.219049 -1.117112
v -18.068026 14.219051 -0.765942
v -19.902445 17.264193 -0.959998
v -19.902445 17.264193 -0.923055
v -20.101963 17.146561 -0.939045
v -20.101963 17.146559 -0.944008
v -19.214733 22.415136 -3.002041
v -21.536562 21.009052 -3.498365
v -19.035080 21.271688 -0.465529
v -22.882275 19.739355 -1.093642
v -23.503096 22.172611 0.675584
v -21.627964 20.494509 2.306279
v -17.152384 22.346010 -1.963881
v -18.833963 20.606401 1.718218
v -16.920633 20.912828 1.110371
v -16.583857 20.773449 -4.385401
v -14.685850 19.282078 -0.212646
v -15.994337 19.395737 -3.446417
v -19.672289 21.852482 -5.628479
v -18.727205 18.982046 -5.620622
v -21.461033 18.910835 -5.454445
v -21.894455 19.834215 -3.288688
v -24.370848 17.709602 -2.503563
v -23.886591 18.462151 0.273812
v -22.186987 15.729738 -2.249047
v -23.960262 15.517841 1.330990
v -22.583660 17.702690 2.160497
v -21.853064 17.268808 3.347234
v -19.360485 19.034506 3.916524
v -21.595293 16.632250 4.668130
v -19.299707 16.506157 4.079323
v -16.563740 19.325300 3.095188
v -15.125734 18.717968 -0.296546
v -16.402447 16.445999 2.299620
v -15.559504 14.489527 0.213062
v -15.514425 16.285202 -2.438308
v -15.768023 16.859945 -3.896417
v -15.209562 14.731436 -1.917899
v -17.422487 15.120386 -3.678158
v -18.755104 16.170595 -4.811655
v -21.257294 18.318716 -4.974177
v -20.662109 15.489374 -2.814111
v -18.984600 13.902716 0.486141
v -19.225363 13.745663 3.205858
v -21.533724 14.810993 2.160736
v -17.107008 15.065203 0.075287
v -18.113054 14.349123 -1.886228
v -21.129171 13.892841 -0.514094
v -9.034771 18.125378 -5.838767
v -11.909079 17.545828 -5.128396
v -8.755278 19.899323 -3.375511
v -13.287836 19.517698 -2.844679
v -13.064217 22.546831 -4.278049
v -11.268778 22.775541 -1.544490
v -6.724874 18.547964 -4.909103
v -8.385258 21.573256 -1.548198
v -6.383301 20.670959 -1.877011
v -6.883914 15.345436 -4.643302
v -4.637906 18.053104 -0.718584
v -6.470176 15.396513 -2.755282
v -10.050589 15.490028 -6.786322
v -9.777651 13.834341 -3.940028
v -12.650494 14.644663 -4.191899
v -12.550995 17.250217 -3.963843
v -15.578032 17.558809 -1.913100
v -14.463682 20.423712 -1.059295
v -13.738863 16.264931 0.412359
v -15.125874 19.975609 2.267287
v -13.001146 21.493559 0.861742
v -12.163851 22.210682 2.015570
v -9.008120 22.994345 1.031429
v -11.855686 23.072664 3.361508
v -9.557293 21.877218 3.506952
v -6.111412 21.660656 0.734661
v -5.256018 17.805061 -0.298419
v -6.786229 19.442177 3.041399
v -6.703018 16.295095 3.889072
v -6.598483 14.680159 0.784006
v -6.938313 13.657326 -0.576731
v -6.591448 14.321741 2.570705
v -9.087086 13.416395 0.930313
v -10.395174 13.207085 -0.864767
v -12.513500 14.751305 -3.346723
v -12.277563 15.229429 0.563042
v -10.418060 17.124382 4.076540
v -10.305363 19.666336 5.647134
v -12.624256 19.793711 3.739606
v -8.208502 16.841383 3.042512
v -9.741524 14.893856 2.514115
v -12.828823 16.719000 3.229280
vt 0.000000 1.000000
vt 1.000000 1.000000
vt 1.000000 0.000000
vt 0.000000 0.000000
vt 0.000000 1.000000
vt 1.000000 1.000000
vt 1.000000 1.000000
vt 0.000000 1.000000
vt 1.000000 1.000000
vt 0.000000 1.000000
vt 0.000000 1.000000
vt 1.000000 1.000000
vt 1.000000 0.000000
vt 0.000000 0.000000
vt 1.000000 1.000000
vt 0.000000 1.000000
vt 0.000000 0.000000
vt 1.000000 0.000000
vt 1.000000 0.000000
vt 0.000000 0.000000
vt 1.000000 1.000000
vt 1.000000 1.000000
vt 0.000000 1.000000
vt 0.000000 1.000000
vt 0.000000 1.000000
vt 0.000000 0.000000
vt 0.000000 1.000000
vt 0.000000 0.000000
vt 0.000000 0.000000
vt 0.000000 1.000000
vt 0.000000 1.000000
vt 0.000000 0.000000
vt 0.000000 0.000000
vt 1.000000 0.000000
vt 0.000000 0.000000
vt 1.000000 0.000000
vt 0.000000 0.000000
vt 1.000000 0.000000
vt 0.000000 0.000000
vt 1.000000 0.000000
vt 0.600000 1.000000
vt 0.500000 0.823792
vt 0.700000 0.823792
vt 0.500000 0.647584
vt 0.600000 0.676208
vt 0.700000 0.647584
vt 0.800000 1.000000
vt 0.900000 0.823792
vt 0.800000 0.676208
vt 0.900000 0.647584
vt 0.000000 1.000000
vt -0.100000 0.823792
vt 0.100000 0.823792
vt -0.100000 0.647584
vt 0.000000 0.676208
vt 0.100000 0.647584
vt 0.200000 1.000000
vt 0.300000 0.823792
vt 0.200000 0.676208
vt 0.300000 0.647584
vt 0.400000 1.000000
vt 0.400000 0.676208
vt 0.450000 0.500000
vt 0.550000 0.500000
vt 0.400000 0.352416
vt 0.500000 0.323792
vt 0.600000 0.352416
vt 0.650000 0.500000
vt 0.750000 0.500000
vt 0.700000 0.323792
vt 0.800000 0.352416
vt 0.850000 0.500000
vt 0.950000 0.500000
vt 0.900000 0.323792
vt -0.050000 0.500000
vt -0.100000 0.323792
vt 0.000000 0.352416
vt 0.050000 0.500000
vt 0.150000 0.500000
vt 0.100000 0.323792
vt 0.200000 0.352416
vt 0.250000 0.500000
vt 0.350000 0.500000
vt 0.300000 0.323792
vt 0.700000 0.000000
vt 0.800000 0.176208
vt 0.600000 0.176208
vt -0.100000 0.000000
vt 0.000000 0.176208
vt -0.200000 0.176208
vt 0.100000 0.000000
vt 0.200000 0.176208
vt 0.300000 0.000000
vt 0.400000 0.176208
vt 0.500000 0.000000
vt 0.600000 1.000000
vt 0.500000 0.823792
vt 0.700000 0.823792
vt 0.500000 0.647584
vt 0.600000 0.676208
vt 0.700000 0.647584
vt 0.800000 1.000000
vt 0.900000 0.823792
vt 0.800000 0.676208
vt 0.900000 0.647584
vt 0.000000 1.000000
vt -0.100000 0.823792
vt 0.100000 0.823792
vt -0.100000 0.647584
vt 0.000000 0.676208
vt 0.100000 0.647584
vt 0.200000 1.000000
vt 0.300000 0.823792
vt 0.200000 0.676208
vt 0.300000 0.647584
vt 0.400000 1.000000
vt 0.400000 0.676208
vt 0.450000 0.500000
vt 0.550000 0.500000
vt 0.400000 0.352416
vt 0.500000 0.323792
vt 0.600000 0.352416
vt 0.650000 0.500000
vt 0.750000 0.500000
vt 0.700000 0.323792
vt 0.800000 0.352416
vt 0.850000 0.500000
vt 0.950000 0.500000
vt 0.900000 0.323792
vt -0.050000 0.500000
vt -0.100000 0.323792
vt 0.000000 0.352416
vt 0.050000 0.500000
vt 0.150000 0.500000
vt 0.100000 0.323792
vt 0.200000 0.352416
vt 0.250000 0.500000
vt 0.350000 0.500000
vt 0.300000 0.323792
vt 0.700000 0.000000
vt 0.800000 0.176208
vt 0.600000 0.176208
vt -0.100000 0.000000
vt 0.000000 0.176208
vt -0.200000 0.176208
vt 0.100000 0.000000
vt 0.200000 0.176208
vt 0.300000 0.000000
vt 0.400000 0.176208
vt 0.500000 0.000000
vn 0.0161 -0.0863 0.9961
vn 0.9654 0.2608 -0.0001
vn -0.0366 0.1828 -0.9825
vn -0.9805 -0.1966 -0.0008
vn -0.0000 -0.0213 0.9998
vn 0.9722 0.2341 0.0000
vn 0.0000 0.1152 -0.9933
vn -0.9895 -0.1445 0.0000
vn -0.0000 0.0682 0.9977
vn 0.9285 -0.3712 0.0000
vn 0.0000 -0.0303 -0.9995
vn -0.9160 0.4011 0.0000
vn -0.0000 0.0744 0.9972
vn 0.9680 -0.2510 0.0000
vn 0.0000 0.0744 -0.9972
vn 0.6609 0.7504 0.0000
vn 0.0611 0.0457 -0.9971
vn -0.7221 -0.6918 0.0000
vn -0.0383 0.1134 0.9928
vn 0.7653 0.6437 0.0000
vn 0.0313 0.0823 -0.9961
vn -0.8212 -0.5706 0.0000
vn 0.0313 0.0823 0.9961
vn -0.0101 0.0898 0.9959
vn 0.0075 0.0789 0.9969
vn -0.0213 0.0968 0.9951
vn -0.0516 0.1155 0.9920
vn 0.9947 0.1026 0.0036
vn -0.0230 0.1489 -0.9886
vn -0.0070 0.1612 -0.9869
vn -0.0330 0.1411 -0.9894
vn -0.0487 0.1289 -0.9905
vn -0.9918 0.1275 -0.0099
vn -0.5374 0.7539 0.3779
vn -0.8896 0.0975 -0.4463
vn 0.1436 0.9687 -0.2024
vn 0.2923 0.8142 0.5017
vn -0.1789 0.8921 0.4148
vn 0.0226 0.9569 0.2895
vn -0.2786 0.9113 0.3033
vn -0.0107 0.9060 0.4232
vn 0.2693 0.8353 -0.4793
vn 0.6673 0.6931 0.2728
vn 0.8129 0.5568 -0.1707
vn 0.9192 0.1433 -0.3669
vn 0.4098 0.8747 -0.2588
vn 0.6265 -0.2378 -0.7422
vn 0.4096 0.1324 -0.9026
vn -0.0601 -0.0225 -0.9979
vn -0.5003 0.8604 -0.0972
vn -0.8061 0.4688 -0.3612
vn -0.7704 0.1230 -0.6255
vn -0.8962 0.2026 -0.3946
vn -0.7982 0.6020 -0.0239
vn -0.6084 -0.7153 -0.3437
vn -0.9855 0.0787 0.1505
vn -0.7511 0.2397 0.6152
vn -0.4125 0.3057 0.8581
vn -0.2369 0.8563 0.4589
vn -0.5835 0.6812 0.4421
vn 0.2514 0.0682 0.9655
vn 0.8223 0.5072 0.2578
vn 0.5095 -0.2025 0.8363
vn 0.9152 -0.0589 0.3986
vn 0.9112 -0.0441 0.4095
vn 0.9856 0.1106 -0.1278
vn 0.9510 0.2483 0.1844
vn 0.9817 0.1560 -0.1092
vn 0.4674 -0.5330 -0.7053
vn -0.5126 -0.6403 -0.5720
vn -0.2291 -0.8334 -0.5029
vn -0.4694 -0.5961 -0.6514
vn -0.3577 -0.6130 -0.7044
vn -0.4412 -0.8957 -0.0558
vn -0.4573 0.3019 0.8365
vn -0.8292 0.0252 0.5584
vn -0.8565 0.1423 -0.4962
vn 0.2746 0.0684 0.9591
vn 0.0698 0.7851 0.6154
vn 0.0912 0.7996 0.5936
vn 0.0930 0.7992 0.5938
vn 0.9925 -0.1086 -0.0567
vn 0.9270 0.0217 -0.3743
vn 0.6276 -0.5685 0.5319
vn 0.2760 -0.3485 0.8958
vn 0.3544 -0.4405 -0.8248
vn -0.0512 -0.2757 -0.9599
vn 0.3377 -0.2634 -0.9037
vn 0.5931 0.1917 -0.7820
vn -0.4381 -0.5723 -0.6932
vn -0.6748 0.6852 -0.2741
vn -0.6043 0.4653 -0.6468
vn -0.9353 -0.3519 -0.0371
vn -0.3847 -0.9189 -0.0871
vn 0.2230 -0.2886 0.9311
vn -0.5380 -0.6882 0.4867
vn -0.9171 -0.3330 0.2193
vn 0.5260 -0.8505 -0.0025
vn -0.3304 -0.7514 0.5711
vn 0.7099 -0.6767 0.1952
vn 0.5033 -0.2483 0.8277
vn 0.5318 -0.8461 0.0361
vn 0.1183 -0.9278 -0.3538
vn 0.1283 -0.9510 0.2814
vn -0.3316 -0.9297 -0.1600
vn 0.0776 -0.9846 -0.1567
vn -0.3327 -0.7417 -0.5824
vn -0.1448 -0.7988 -0.5839
vn -0.2198 -0.8624 -0.4559
vn -0.1370 -0.9431 0.3030
vn -0.3542 -0.1285 0.9263
vn -0.3501 -0.9010 0.2563
vn -0.6279 -0.6941 -0.3521
vn -0.2923 0.7915 -0.5368
vn -0.8954 -0.1347 -0.4243
vn 0.3342 0.2325 -0.9134
vn 0.5378 0.7340 -0.4147
vn 0.0900 0.8033 -0.5887
vn 0.2820 0.6783 -0.6785
vn -0.0169 0.7390 -0.6735
vn 0.2564 0.7780 -0.5736
vn 0.3866 -0.0953 -0.9173
vn 0.8399 0.3956 -0.3716
vn 0.8883 -0.0816 -0.4520
vn 0.8685 -0.4627 -0.1778
vn 0.5612 0.0799 -0.8238
vn 0.4474 -0.8913 -0.0739
vn 0.3019 -0.8112 -0.5008
vn -0.1993 -0.8552 -0.4784
vn -0.2968 0.4224 -0.8565
vn -0.7178 0.0879 -0.6907
vn -0.7993 -0.3048 -0.5179
vn -0.8706 -0.0409 -0.4903
vn -0.6334 0.4367 -0.6388
vn -0.7981 -0.4802 0.3640
vn -0.9107 0.3925 -0.1284
vn -0.5844 0.8115 -0.0070
vn -0.2098 0.9725 0.1015
vn 0.0319 0.8383 -0.5442
vn -0.3447 0.8243 -0.4490
vn 0.3897 0.8039 0.4492
vn 0.9444 0.2625 -0.1978
vn 0.5583 0.5103 0.6541
vn 0.9226 0.1052 0.3711
vn 0.9236 0.1223 0.3633
vn 0.9576 -0.2871 -0.0234
vn 0.9986 0.0521 0.0065
vn 0.9669 -0.2496 -0.0539
vn 0.2311 -0.9568 0.1765
vn -0.7196 -0.6648 0.2005
vn -0.4815 -0.7584 0.4393
vn -0.6786 -0.7230 0.1294
vn -0.5821 -0.8021 0.1332
vn -0.6393 -0.3528 0.6832
vn -0.2568 0.9624 0.0881
vn -0.7168 0.6833 0.1390
vn -0.8601 -0.1649 -0.4827
vn 0.4112 0.7932 0.4492
vn 0.3323 0.8700 -0.3643
vn 0.3533 0.8528 -0.3845
vn 0.3549 0.8524 -0.3839
vn 0.9234 -0.3270 0.2012
vn 0.8470 -0.5261 -0.0758
vn 0.5462 0.0549 0.8359
vn 0.3078 0.5491 0.7770
vn 0.1272 -0.9916 0.0229
vn -0.2439 -0.9395 -0.2406
vn 0.1412 -0.9752 -0.1705
vn 0.5089 -0.7227 -0.4676
vn -0.6487 -0.7554 0.0927
vn -0.5295 0.2308 -0.8163
vn -0.5632 -0.2061 -0.8002
vn -0.9873 0.0240 0.1570
vn -0.5944 -0.4035 0.6956
vn 0.2754 0.6189 0.7356
vn -0.6106 0.2305 0.7577
vn -0.9304 0.2491 0.2690
vn 0.3103 -0.5096 0.8025
vn -0.4136 0.2266 0.8818
vn 0.5546 -0.3029 0.7750
vn 0.5406 0.4835 0.6885
vn 0.3221 -0.4757 0.8185
vn -0.1483 -0.7530 0.6411
vn -0.0573 -0.2192 0.9740
vn -0.5557 -0.4833 0.6764
vn -0.1737 -0.5998 0.7811
vn -0.5711 -0.7612 0.3072
vn -0.4034 -0.8318 0.3813
vn -0.4729 -0.7332 0.4886
vn -0.3081 -0.1358 0.9416
vn -0.2444 0.8205 0.5167
vn -0.5101 -0.1077 0.8534
vn -0.8130 -0.4734 0.3390
usemtl Trunk_1
s off
f 4/1/1 3/2/1 9/3/1 10/4/1
f 3/5/2 6/6/2 11/7/2 9/3/2
f 6/8/3 8/9/3 12/10/3 11/7/3
f 8/11/4 4/12/4 10/4/4 12/10/4
f 9/3/5 13/13/5 14/14/5 10/4/5
f 11/7/6 15/15/6 13/13/6 9/3/6
f 11/7/7 12/10/7 16/16/7 15/15/7
f 10/4/8 14/14/8 16/16/8 12/10/8
f 17/17/9 18/18/9 19/19/9 20/20/9
f 18/18/10 21/21/10 22/22/10 19/19/10
f 21/21/11 23/23/11 24/24/11 22/22/11
f 23/23/12 17/17/12 20/20/12 24/24/12
f 13/13/13 18/18/13 17/17/13 14/14/13
f 21/21/14 18/18/14 13/13/14 15/15/14
f 23/23/15 21/21/15 15/15/15 16/16/15
f 17/17/16 23/23/16 25/25/16 26/26/16
f 23/23/17 16/16/17 27/27/17 25/25/17
f 16/16/18 14/14/18 28/28/18 27/27/18
f 14/14/19 17/17/19 26/26/19 28/28/19
f 29/29/20 26/26/20 25/25/20 30/30/20
f 25/25/21 27/27/21 31/31/21 30/30/21
f 31/31/22 27/27/22 28/28/22 32/32/22
f 28/28/23 26/26/23 29/29/23 32/32/23
s 1
f 1/33/24 2/34/25 3/2/26 4/1/27
f 2/35/28 5/36/28 6/6/28 3/5/28
f 5/37/29 7/38/30 8/9/31 6/8/32
f 7/39/33 1/40/33 4/12/33 8/11/33
usemtl Treetop_1
s off
f 33/41/34 34/42/34 35/43/34
f 34/42/35 36/44/35 37/45/35
f 34/42/36 37/45/36 35/43/36
f 35/43/37 37/45/37 38/46/37
f 33/47/38 35/43/38 39/48/38
f 35/43/39 38/46/39 40/49/39
f 35/43/40 40/49/40 39/48/40
f 39/48/41 40/49/41 41/50/41
f 33/51/42 39/52/42 42/53/42
f 39/52/43 41/54/43 43/55/43
f 39/52/44 43/55/44 42/53/44
f 42/53/45 43/55/45 44/56/45
f 33/57/46 42/53/46 45/58/46
f 42/53/47 44/56/47 46/59/47
f 42/53/48 46/59/48 45/58/48
f 45/58/49 46/59/49 47/60/49
f 33/61/50 45/58/50 34/42/50
f 45/58/51 47/60/51 48/62/51
f 45/58/52 48/62/52 34/42/52
f 34/42/53 48/62/53 36/44/53
f 36/44/54 49/63/54 50/64/54
f 49/63/55 51/65/55 52/66/55
f 49/63/56 52/66/56 50/64/56
f 50/64/57 52/66/57 53/67/57
f 38/46/58 54/68/58 55/69/58
f 54/68/59 53/67/59 56/70/59
f 54/68/60 56/70/60 55/69/60
f 55/69/61 56/70/61 57/71/61
f 41/50/62 58/72/62 59/73/62
f 58/72/63 57/71/63 60/74/63
f 58/72/64 60/74/64 59/73/64
f 59/75/65 60/76/65 61/77/65
f 44/56/66 62/78/66 63/79/66
f 62/78/67 61/77/67 64/80/67
f 62/78/68 64/80/68 63/79/68
f 63/79/69 64/80/69 65/81/69
f 47/60/70 66/82/70 67/83/70
f 66/82/71 65/81/71 68/84/71
f 66/82/72 68/84/72 67/83/72
f 67/83/73 68/84/73 51/65/73
f 53/67/74 54/68/74 50/64/74
f 54/68/75 38/46/75 37/45/75
f 54/68/76 37/45/76 50/64/76
f 50/64/77 37/45/77 36/44/77
f 57/71/78 58/72/78 55/69/78
f 58/72/79 41/50/79 40/49/79
f 58/72/80 40/49/80 55/69/80
f 55/69/81 40/49/81 38/46/81
f 61/77/82 62/78/82 59/75/82
f 62/78/83 44/56/83 43/55/83
f 62/78/84 43/55/84 59/75/84
f 59/75/85 43/55/85 41/54/85
f 65/81/86 66/82/86 63/79/86
f 66/82/87 47/60/87 46/59/87
f 66/82/88 46/59/88 63/79/88
f 63/79/89 46/59/89 44/56/89
f 51/65/90 49/63/90 67/83/90
f 49/63/91 36/44/91 48/62/91
f 49/63/92 48/62/92 67/83/92
f 67/83/93 48/62/93 47/60/93
f 69/85/94 70/86/94 71/87/94
f 70/86/95 57/71/95 56/70/95
f 70/86/96 56/70/96 71/87/96
f 71/87/97 56/70/97 53/67/97
f 69/88/98 72/89/98 70/90/98
f 72/89/99 61/77/99 60/76/99
f 72/89/100 60/76/100 70/90/100
f 70/86/101 60/74/101 57/71/101
f 69/91/102 73/92/102 72/89/102
f 73/92/103 65/81/103 64/80/103
f 73/92/104 64/80/104 72/89/104
f 72/89/105 64/80/105 61/77/105
f 69/93/106 74/94/106 73/92/106
f 74/94/107 51/65/107 68/84/107
f 74/94/108 68/84/108 73/92/108
f 73/92/109 68/84/109 65/81/109
f 69/95/110 71/87/110 74/94/110
f 71/87/111 53/67/111 52/66/111
f 71/87/112 52/66/112 74/94/112
f 74/94/113 52/66/113 51/65/113
f 75/96/114 76/97/114 77/98/114
f 76/97/115 78/99/115 79/100/115
f 76/97/116 79/100/116 77/98/116
f 77/98/117 79/100/117 80/101/117
f 75/102/118 77/98/118 81/103/118
f 77/98/119 80/101/119 82/104/119
f 77/98/120 82/104/120 81/103/120
f 81/103/121 82/104/121 83/105/121
f 75/106/122 81/107/122 84/108/122
f 81/107/123 83/109/123 85/110/123
f 81/107/124 85/110/124 84/108/124
f 84/108/125 85/110/125 86/111/125
f 75/112/126 84/108/126 87/113/126
f 84/108/127 86/111/127 88/114/127
f 84/108/128 88/114/128 87/113/128
f 87/113/129 88/114/129 89/115/129
f 75/116/130 87/113/130 76/97/130
f 87/113/131 89/115/131 90/117/131
f 87/113/132 90/117/132 76/97/132
f 76/97/133 90/117/133 78/99/133
f 78/99/134 91/118/134 92/119/134
f 91/118/135 93/120/135 94/121/135
f 91/118/136 94/121/136 92/119/136
f 92/119/137 94/121/137 95/122/137
f 80/101/138 96/123/138 97/124/138
f 96/123/139 95/122/139 98/125/139
f 96/123/140 98/125/140 97/124/140
f 97/124/141 98/125/141 99/126/141
f 83/105/142 100/127/142 101/128/142
f 100/127/143 99/126/143 102/129/143
f 100/127/144 102/129/144 101/128/144
f 101/130/145 102/131/145 103/132/145
f 86/111/146 104/133/146 105/134/146
f 104/133/147 103/132/147 106/135/147
f 104/133/148 106/135/148 105/134/148
f 105/134/149 106/135/149 107/136/149
f 89/115/150 108/137/150 109/138/150
f 108/137/151 107/136/151 110/139/151
f 108/137/152 110/139/152 109/138/152
f 109/138/153 110/139/153 93/120/153
f 95/122/154 96/123/154 92/119/154
f 96/123/155 80/101/155 79/100/155
f 96/123/156 79/100/156 92/119/156
f 92/119/157 79/100/157 78/99/157
f 99/126/158 100/127/158 97/124/158
f 100/127/159 83/105/159 82/104/159
f 100/127/160 82/104/160 97/124/160
f 97/124/161 82/104/161 80/101/161
f 103/132/162 104/133/162 101/130/162
f 104/133/163 86/111/163 85/110/163
f 104/133/164 85/110/164 101/130/164
f 101/130/165 85/110/165 83/109/165
f 107/136/166 108/137/166 105/134/166
f 108/137/167 89/115/167 88/114/167
f 108/137/168 88/114/168 105/134/168
f 105/134/169 88/114/169 86/111/169
f 93/120/170 91/118/170 109/138/170
f 91/118/171 78/99/171 90/117/171
f 91/118/172 90/117/172 109/138/172
f 109/138/173 90/117/173 89/115/173
f 111/140/174 112/141/174 113/142/174
f 112/141/175 99/126/175 98/125/175
f 112/141/176 98/125/176 113/142/176
f 113/142/177 98/125/177 95/122/177
f 111/143/178 114/144/178 112/145/178
f 114/144/179 103/132/179 102/131/179
f 114/144/180 102/131/180 112/145/180
f 112/141/181 102/129/181 99/126/181
f 111/146/182 115/147/182 114/144/182
f 115/147/183 107/136/183 106/135/183
f 115/147/184 106/135/184 114/144/184
f 114/144/185 106/135/185 103/132/185
f 111/148/186 116/149/186 115/147/186
f 116/149/187 93/120/187 110/139/187
f 116/149/188 110/139/188 115/147/188
f 115/147/189 110/139/189 107/136/189
f 111/150/190 113/142/190 116/149/190
f 113/142/191 95/122/191 94/121/191
f 113/142/192 94/121/192 116/149/192
f 116/149/193 94/121/193 93/120/193
